<?xml version="1.0" standalone="no"?>
<!DOCTYPE svg PUBLIC "-//W3C//DTD SVG 20010904//EN"
 "http://www.w3.org/TR/2001/REC-SVG-20010904/DTD/svg10.dtd">
<svg version="1.0" xmlns="http://www.w3.org/2000/svg"
 width="1600.000000pt" height="1600.000000pt" viewBox="0 0 1600.000000 1600.000000"
 preserveAspectRatio="xMidYMid meet">

<g transform="translate(0.000000,1600.000000) scale(0.100000,-0.100000)"
fill="#000000" stroke="none">
<path d="M0 8000 l0 -8000 8000 0 8000 0 0 8000 0 8000 -8000 0 -8000 0 0
-8000z m7867 5051 c271 -41 499 -113 748 -236 254 -125 471 -281 670 -480
l104 -104 117 20 c711 116 1421 -66 1994 -509 107 -83 290 -261 385 -373 313
-373 517 -838 586 -1339 20 -141 17 -496 -5 -645 -22 -154 -70 -364 -101 -446
-3 -8 25 -50 66 -99 167 -200 347 -514 437 -765 50 -139 104 -355 128 -510 23
-150 26 -531 6 -675 -82 -584 -333 -1096 -734 -1502 -321 -324 -716 -549
-1173 -668 l-110 -28 -42 -114 c-386 -1026 -1389 -1694 -2488 -1655 -387 14
-711 95 -1050 262 -254 125 -470 280 -672 482 l-102 102 -117 -20 c-711 -116
-1421 66 -1994 509 -107 83 -290 261 -385 373 -313 373 -517 839 -586 1339
-17 121 -17 485 -1 610 20 153 74 395 107 481 3 8 -25 50 -66 99 -167 200
-347 514 -437 765 -50 139 -104 355 -128 510 -23 150 -26 531 -6 675 82 584
333 1096 734 1502 321 324 716 549 1173 668 l110 28 42 114 c285 759 932 1350
1709 1563 268 73 449 96 739 90 143 -2 252 -10 342 -24z"/>
<path d="M7355 12409 c-404 -21 -817 -192 -1132 -468 -309 -271 -526 -647
-615 -1067 l-23 -109 -3 -1315 -2 -1316 419 -242 c230 -133 426 -244 435 -248
14 -6 16 118 18 1467 l3 1474 27 50 c14 28 44 66 65 87 22 21 487 295 1092
644 l1053 609 -37 32 c-158 136 -439 277 -686 342 -201 53 -388 72 -614 60z"/>
<path d="M9705 11608 c-209 -23 -433 -90 -620 -183 -132 -66 -2156 -1232
-2167 -1249 -4 -6 -8 -233 -8 -505 0 -442 2 -493 16 -487 8 3 569 326 1247
717 677 391 1249 718 1270 725 51 18 154 18 205 0 22 -8 508 -285 1080 -615
572 -331 1047 -604 1055 -607 23 -9 41 190 34 382 -20 564 -276 1069 -722
1426 -375 300 -905 451 -1390 396z"/>
<path d="M4821 10545 c-190 -78 -395 -214 -558 -369 -304 -290 -490 -636 -570
-1061 -24 -128 -28 -427 -9 -569 76 -543 358 -1004 806 -1318 53 -37 2056
-1199 2157 -1252 l30 -15 423 244 c233 135 427 248 431 252 5 5 -551 331
-1234 725 -683 395 -1259 731 -1279 748 -21 18 -51 59 -70 98 l-33 67 -5 1242
-5 1242 -84 -34z"/>
<path d="M8920 9795 c-233 -135 -427 -248 -431 -252 -5 -5 551 -331 1234 -725
683 -395 1259 -731 1279 -748 21 -18 51 -59 70 -98 l33 -67 5 -1242 5 -1242
84 34 c190 78 395 214 558 369 304 290 490 636 570 1061 24 128 28 427 9 569
-76 542 -359 1005 -806 1318 -53 37 -2057 1200 -2157 1252 l-30 15 -423 -244z"/>
<path d="M7458 8952 l-548 -317 0 -635 0 -635 550 -317 550 -317 550 317 550
317 0 635 0 635 -546 315 c-300 173 -549 316 -553 317 -3 1 -252 -141 -553
-315z"/>
<path d="M9568 6889 l-3 -1474 -27 -50 c-14 -27 -44 -66 -65 -87 -22 -21 -487
-295 -1092 -644 l-1053 -609 37 -32 c102 -88 310 -208 471 -272 228 -90 452
-132 710 -132 513 0 976 192 1340 555 267 268 445 599 526 982 l23 109 3 1315
2 1316 -419 242 c-230 133 -426 244 -435 248 -14 6 -16 -118 -18 -1467z"/>
<path d="M7865 6109 c-676 -392 -1251 -720 -1278 -730 -57 -23 -158 -25 -215
-5 -22 8 -508 285 -1080 615 -572 331 -1047 604 -1055 607 -20 7 -25 -31 -33
-241 -12 -302 33 -547 155 -836 106 -254 324 -538 551 -719 578 -461 1374
-550 2025 -225 132 66 2156 1232 2167 1249 10 14 10 996 1 996 -5 0 -561 -320
-1238 -711z"/>
</g>
</svg>
