<?xml version="1.0" standalone="no"?>
<!DOCTYPE svg PUBLIC "-//W3C//DTD SVG 20010904//EN"
 "http://www.w3.org/TR/2001/REC-SVG-20010904/DTD/svg10.dtd">
<svg version="1.0" xmlns="http://www.w3.org/2000/svg"
 width="600.000000pt" height="600.000000pt" viewBox="0 0 600.000000 600.000000"
 preserveAspectRatio="xMidYMid meet">

<g transform="translate(0.000000,600.000000) scale(0.100000,-0.100000)"
fill="#000000" stroke="none">
<path d="M2565 5289 c-200 -23 -438 -140 -576 -286 -137 -143 -222 -307 -264
-508 l-22 -110 -73 -7 c-158 -16 -335 -81 -470 -170 -67 -45 -187 -162 -241
-234 -96 -131 -159 -290 -179 -454 -17 -133 -1 -318 36 -428 59 -176 173 -349
300 -453 41 -33 74 -66 74 -73 0 -7 -16 -50 -36 -95 -47 -110 -75 -249 -77
-381 -3 -459 306 -851 763 -966 112 -28 355 -26 466 4 44 12 97 28 117 37 63
26 82 21 115 -33 39 -63 166 -190 243 -242 204 -139 437 -198 674 -170 116 13
184 30 277 71 309 135 517 395 584 729 9 47 21 91 27 97 5 7 29 13 53 13 58 0
254 52 334 89 104 47 195 112 286 200 154 152 245 328 279 536 56 343 -66 679
-330 913 l-83 74 35 76 c54 119 74 208 80 367 4 116 2 157 -15 235 -77 374
-353 661 -730 762 -119 31 -302 35 -424 9 -54 -11 -126 -32 -161 -46 -35 -14
-69 -25 -75 -25 -6 0 -27 24 -46 53 -55 83 -219 235 -312 289 -108 63 -237
108 -359 124 -111 15 -153 15 -270 3z m286 -155 c205 -38 396 -156 516 -318
23 -32 43 -62 43 -66 0 -5 -57 -41 -127 -81 -71 -40 -202 -116 -293 -169 -91
-53 -276 -160 -411 -238 -177 -102 -249 -149 -257 -167 -9 -19 -12 -202 -12
-667 0 -606 -1 -640 -17 -633 -23 8 -378 212 -415 237 l-28 19 0 642 c0 698 4
768 55 903 145 386 546 614 946 538z m1354 -403 c164 -48 324 -153 423 -275
67 -81 135 -211 162 -306 30 -103 37 -279 17 -385 -16 -83 -73 -245 -86 -245
-4 0 -75 39 -157 86 -82 48 -252 146 -379 219 -126 73 -301 174 -388 224 -87
50 -168 91 -180 91 -12 0 -56 -20 -97 -43 -99 -57 -728 -420 -900 -519 -74
-43 -138 -78 -143 -78 -4 0 -6 118 -5 262 l3 262 50 29 c426 251 1103 635
1154 654 110 42 184 53 326 49 94 -3 150 -10 200 -25z m-2505 -1128 c1 -498 3
-632 14 -645 7 -9 262 -161 567 -338 305 -176 555 -324 557 -328 2 -7 -418
-254 -443 -260 -7 -2 -37 11 -66 29 -30 18 -126 73 -214 124 -497 285 -835
482 -872 507 -174 118 -304 319 -349 537 -22 110 -15 284 15 389 82 284 326
520 606 585 83 19 109 24 153 26 l32 1 0 -627z m2107 264 c98 -57 329 -190
513 -297 424 -244 463 -268 532 -329 114 -103 208 -258 250 -413 32 -119 32
-309 0 -426 -94 -346 -374 -583 -739 -628 l-53 -6 0 626 0 626 -27 29 c-16 16
-179 115 -363 221 -184 106 -360 208 -390 226 -131 77 -298 173 -328 188 -18
10 -32 22 -30 27 4 12 428 258 445 259 6 0 92 -46 190 -103z m-608 -357 c105
-61 224 -130 263 -153 l73 -43 0 -314 0 -314 -50 -29 c-27 -16 -147 -85 -266
-154 l-215 -124 -255 147 c-140 80 -262 153 -272 162 -16 14 -17 37 -11 321 4
211 10 308 18 313 47 30 512 297 518 297 3 1 92 -49 197 -109z m749 -434 l202
-117 0 -687 c0 -652 -1 -691 -20 -770 -75 -312 -307 -543 -630 -628 -91 -24
-291 -24 -383 0 -152 40 -281 111 -390 214 -71 69 -131 148 -124 165 3 8 47
37 98 67 123 70 320 184 389 224 30 18 168 97 305 176 138 79 260 152 273 163
22 20 22 25 22 242 0 122 3 418 7 658 l6 437 21 -13 c12 -8 112 -66 224 -131z
m-410 -837 l-3 -260 -320 -185 c-176 -102 -430 -249 -564 -326 -328 -190 -393
-215 -582 -225 -315 -17 -606 141 -769 416 -134 227 -151 523 -44 762 15 32
30 59 34 59 6 0 587 -333 944 -541 65 -38 129 -72 141 -75 14 -3 40 3 66 16
46 24 1020 583 1054 606 45 30 45 29 43 -247z"/>
</g>
</svg>
