<?xml version="1.0" standalone="no"?>
<!DOCTYPE svg PUBLIC "-//W3C//DTD SVG 20010904//EN"
 "http://www.w3.org/TR/2001/REC-SVG-20010904/DTD/svg10.dtd">
<svg version="1.0" xmlns="http://www.w3.org/2000/svg"
 width="1000.000000pt" height="1200.000000pt" viewBox="0 0 1000.000000 1200.000000"
 preserveAspectRatio="xMidYMid meet">

<g transform="translate(0.000000,1200.000000) scale(0.100000,-0.100000)"
fill="#000000" stroke="none">
<path d="M7122 10240 c0 -14 2 -19 5 -12 2 6 2 18 0 25 -3 6 -5 1 -5 -13z"/>
<path d="M5399 10113 c-13 -16 -12 -17 4 -4 9 7 17 15 17 17 0 8 -8 3 -21 -13z"/>
<path d="M5328 10083 c6 -2 18 -2 25 0 6 3 1 5 -13 5 -14 0 -19 -2 -12 -5z"/>
<path d="M6070 9988 c-52 -3 -144 -16 -205 -27 -105 -19 -111 -22 -146 -60
-56 -62 -100 -154 -106 -220 -5 -54 -4 -59 22 -79 28 -22 83 -29 101 -13 18
18 230 120 304 146 41 15 104 34 140 42 60 14 68 19 98 63 18 26 53 68 78 94
25 25 44 47 42 47 -20 7 -255 12 -328 7z"/>
<path d="M6390 9545 c-82 -15 -182 -47 -202 -64 -7 -6 -44 -27 -83 -47 -82
-42 -186 -117 -235 -170 -19 -20 -28 -33 -20 -28 8 4 1 -10 -17 -32 -36 -45
-65 -51 -99 -19 -34 32 -157 74 -266 92 -83 14 -115 15 -187 6 -143 -19 -262
-67 -345 -142 -139 -125 -165 -161 -262 -360 -110 -227 -115 -513 -13 -731 35
-76 74 -130 94 -130 7 0 25 14 40 31 31 38 44 31 23 -14 -21 -44 -7 -70 51
-96 l46 -21 -43 5 c-33 4 -43 2 -40 -7 8 -25 148 -116 225 -147 43 -18 90 -38
104 -46 56 -31 218 -44 320 -25 30 5 70 12 90 14 56 7 150 49 219 97 119 84
110 80 139 61 14 -10 22 -12 18 -4 -12 18 2 15 31 -10 15 -12 19 -18 10 -15
-34 12 -18 -2 55 -47 74 -46 190 -98 246 -111 17 -4 31 -10 31 -15 0 -16 147
-34 270 -33 138 1 224 16 348 62 168 61 333 184 444 331 62 80 140 241 167
339 65 236 45 505 -53 717 -124 267 -367 467 -664 546 -102 26 -335 34 -442
13z m398 -341 c232 -59 411 -229 492 -464 30 -87 38 -257 17 -357 -54 -252
-254 -461 -507 -529 -101 -27 -275 -25 -370 5 -129 40 -206 86 -300 180 -140
141 -203 293 -202 486 2 460 428 792 870 679z m-724 -169 c-4 -8 -11 -15 -17
-15 -6 0 -7 -3 -4 -6 4 -4 -3 -15 -15 -25 -11 -11 -18 -19 -14 -19 4 0 4 -5 0
-11 -4 -8 -9 -8 -17 0 -8 8 0 22 28 51 43 44 47 47 39 25z m-93 -146 c-38 -70
-64 -146 -58 -170 3 -11 1 -19 -3 -19 -5 0 -7 -8 -6 -17 2 -10 -2 -21 -8 -25
-8 -5 -7 -8 2 -8 8 0 10 -5 6 -12 -14 -22 -3 -202 16 -280 25 -102 87 -222
150 -291 31 -34 49 -61 44 -68 -5 -8 -3 -9 5 -4 18 11 75 -46 59 -58 -8 -5 -5
-6 10 -2 15 4 24 1 28 -9 3 -9 16 -16 28 -16 17 0 18 -2 6 -10 -12 -8 -10 -10
10 -11 14 0 19 -3 12 -6 -6 -2 -10 -9 -6 -14 3 -5 -3 -9 -12 -9 -10 0 -14 3
-10 7 3 4 -7 12 -23 17 -35 13 -88 54 -152 117 -209 204 -277 541 -163 811 37
88 75 151 85 141 5 -5 -3 -33 -20 -64z m-447 -52 c341 -162 371 -622 54 -827
-83 -54 -163 -73 -286 -68 -91 3 -106 7 -176 41 -177 88 -276 258 -263 452 9
149 84 281 205 362 96 65 166 84 288 80 92 -3 108 -7 178 -40z"/>
<path d="M6545 8800 c3 -5 8 -10 11 -10 2 0 4 5 4 10 0 6 -5 10 -11 10 -5 0
-7 -4 -4 -10z"/>
<path d="M6730 8800 c0 -5 5 -10 11 -10 5 0 7 5 4 10 -3 6 -8 10 -11 10 -2 0
-4 -4 -4 -10z"/>
<path d="M6505 8789 c-4 -6 -4 -13 -1 -16 3 -4 6 -1 6 5 0 6 7 9 17 5 11 -4
14 -3 9 5 -9 15 -23 15 -31 1z"/>
<path d="M6475 8760 c3 -5 8 -10 11 -10 2 0 4 5 4 10 0 6 -5 10 -11 10 -5 0
-7 -4 -4 -10z"/>
<path d="M6435 8720 c3 -5 8 -10 11 -10 2 0 4 5 4 10 0 6 -5 10 -11 10 -5 0
-7 -4 -4 -10z"/>
<path d="M6415 8700 c3 -5 8 -10 11 -10 2 0 4 5 4 10 0 6 -5 10 -11 10 -5 0
-7 -4 -4 -10z"/>
<path d="M6583 8665 c-66 -28 -91 -115 -51 -175 29 -42 61 -60 112 -60 31 0
45 7 77 39 43 43 49 70 20 88 -15 10 -20 9 -25 -2 -7 -20 -30 -19 -47 1 -11
14 -10 19 6 33 22 17 23 70 2 83 -18 12 -59 9 -94 -7z"/>
<path d="M6380 8630 c0 -5 5 -10 11 -10 5 0 7 5 4 10 -3 6 -8 10 -11 10 -2 0
-4 -4 -4 -10z"/>
<path d="M6370 8489 c0 -5 5 -7 10 -4 6 3 10 8 10 11 0 2 -4 4 -10 4 -5 0 -10
-5 -10 -11z"/>
<path d="M6380 8459 c0 -5 5 -7 10 -4 6 3 10 8 10 11 0 2 -4 4 -10 4 -5 0 -10
-5 -10 -11z"/>
<path d="M6395 8440 c-3 -5 -1 -10 4 -10 6 0 11 5 11 10 0 6 -2 10 -4 10 -3 0
-8 -4 -11 -10z"/>
<path d="M6460 8349 c0 -5 5 -7 10 -4 6 3 10 8 10 11 0 2 -4 4 -10 4 -5 0 -10
-5 -10 -11z"/>
<path d="M5371 8684 c0 -11 3 -14 6 -6 3 7 2 16 -1 19 -3 4 -6 -2 -5 -13z"/>
<path d="M5315 8670 c3 -5 8 -10 11 -10 2 0 4 5 4 10 0 6 -5 10 -11 10 -5 0
-7 -4 -4 -10z"/>
<path d="M5275 8640 c3 -5 8 -10 11 -10 2 0 4 5 4 10 0 6 -5 10 -11 10 -5 0
-7 -4 -4 -10z"/>
<path d="M5220 8590 c0 -5 5 -10 11 -10 5 0 7 5 4 10 -3 6 -8 10 -11 10 -2 0
-4 -4 -4 -10z"/>
<path d="M5384 8560 c-63 -25 -92 -111 -58 -170 49 -82 168 -76 204 10 12 30
12 34 -6 47 -12 8 -20 10 -22 3 -6 -16 -42 -12 -49 6 -4 10 0 22 9 28 18 13
13 65 -6 78 -14 10 -45 9 -72 -2z"/>
<path d="M5180 8520 c0 -5 5 -10 11 -10 5 0 7 5 4 10 -3 6 -8 10 -11 10 -2 0
-4 -4 -4 -10z"/>
<path d="M5170 8439 c0 -5 5 -7 10 -4 6 3 10 8 10 11 0 2 -4 4 -10 4 -5 0 -10
-5 -10 -11z"/>
<path d="M4438 9337 c-41 -18 -104 -82 -171 -172 -32 -44 -61 -82 -62 -83 -8
-9 -48 12 -69 35 l-23 25 -18 -44 c-28 -68 -31 -162 -7 -233 11 -33 20 -82 19
-110 0 -29 7 -64 16 -82 24 -46 117 -155 129 -151 5 2 27 51 49 108 81 217
206 442 335 601 l53 67 -60 26 c-66 28 -144 34 -191 13z"/>
<path d="M7885 9310 c-11 -4 -29 -10 -40 -14 -183 -66 -196 -79 -203 -211 -14
-261 208 -610 415 -651 29 -6 37 0 115 77 114 114 142 175 119 257 -7 24 -6
44 5 74 8 22 14 60 14 85 0 40 -2 43 -19 33 -48 -25 -125 3 -179 64 -53 61
-89 216 -50 216 18 0 -25 41 -64 61 -38 19 -78 23 -113 9z"/>
<path d="M7767 8493 c-3 -5 -8 -47 -11 -94 -3 -47 -12 -116 -21 -153 -21 -92
-13 -109 10 -21 10 39 21 76 25 83 4 8 21 -23 41 -75 29 -74 34 -101 34 -168
0 -71 -4 -88 -33 -148 -59 -119 -191 -238 -330 -297 -29 -13 -51 -25 -48 -27
8 -8 155 58 215 97 50 32 60 36 63 22 5 -26 120 95 151 159 54 111 57 213 11
388 -35 130 -93 257 -107 234z"/>
<path d="M8133 8139 c-2 -158 -7 -218 -27 -326 -13 -73 -27 -137 -31 -142 -7
-13 -101 -56 -193 -88 -68 -24 -76 -30 -95 -70 -12 -23 -24 -43 -28 -43 -4 0
-21 -25 -38 -55 -17 -30 -35 -55 -41 -55 -5 0 -73 -11 -152 -25 -179 -31 -474
-61 -728 -75 -260 -14 -894 -14 -1100 0 -224 15 -447 39 -468 50 -9 4 -26 11
-37 15 -16 5 -17 8 -5 15 12 8 12 11 -2 27 -8 10 -19 27 -22 38 -17 53 -40 65
-166 85 -233 38 -583 126 -723 181 -26 10 -49 19 -51 19 -14 0 13 -54 50 -102
l44 -56 0 -107 c0 -81 4 -114 16 -135 54 -90 363 -188 792 -249 321 -47 542
-62 984 -70 l377 -6 -50 -73 c-28 -40 -48 -76 -44 -80 4 -4 12 1 19 12 31 51
97 136 113 144 10 5 95 12 190 16 94 3 216 11 270 16 54 6 125 13 158 16 394
38 755 129 860 217 29 24 30 28 36 137 5 104 7 113 31 133 48 40 117 136 128
177 18 67 -14 428 -53 599 -11 49 -12 37 -14 -140z"/>
<path d="M7375 7594 l-30 -25 30 7 c40 9 45 13 45 30 0 20 -10 17 -45 -12z"/>
<path d="M8211 7210 l0 -75 24 28 c14 15 25 37 25 47 0 10 -11 32 -25 47 l-24
28 0 -75z"/>
<path d="M935 7054 c-14 -15 -24 -35 -22 -44 3 -8 139 -354 302 -769 209 -532
295 -761 291 -777 -5 -19 -2 -25 18 -30 14 -3 31 -13 38 -21 11 -14 9 -15 -21
-8 -30 6 -32 5 -22 -12 5 -11 16 -24 23 -30 11 -8 1574 -481 1923 -581 55 -16
111 -32 124 -37 l25 -8 -27 32 c-22 27 -27 42 -27 87 0 88 34 134 101 136 80
2 126 -136 73 -219 -8 -13 -12 -23 -10 -23 2 0 157 61 344 135 186 74 351 139
365 144 25 10 28 7 53 -34 14 -25 30 -45 35 -45 14 0 11 16 -5 29 -19 16 -86
184 -86 215 l0 25 -67 -20 c-129 -36 -234 -21 -287 42 -22 26 -26 27 -60 17
-48 -15 -191 8 -160 25 22 13 117 15 156 4 16 -4 28 -4 28 1 0 5 -32 14 -70
21 -39 7 -68 17 -65 21 6 9 83 25 104 21 10 -2 12 5 7 29 -3 18 -6 50 -6 71 0
38 -1 39 -34 39 -56 0 -470 90 -485 105 -17 17 -23 13 84 44 127 36 133 36
338 -4 l192 -37 44 19 44 19 -127 29 c-91 21 -123 31 -110 37 12 5 1 6 -26 3
-35 -4 -40 -3 -25 5 15 8 11 9 -20 5 -31 -5 -37 -3 -25 5 12 9 8 10 -18 6 -23
-4 -31 -2 -26 6 5 8 -1 9 -20 4 -20 -5 -26 -4 -20 5 5 8 -2 10 -24 7 -17 -2
-29 -2 -27 2 2 3 -81 23 -183 44 -103 21 -194 41 -202 46 -8 4 -39 70 -69 147
-303 779 -291 752 -334 775 -15 7 -24 5 -43 -13 -13 -12 -24 -28 -24 -36 0 -7
-4 -13 -10 -13 -5 0 -10 8 -10 18 0 15 -2 15 -11 2 -8 -11 -12 -12 -16 -2 -2
6 -16 12 -30 12 -15 0 -23 5 -21 13 3 7 22 12 46 13 23 0 47 5 53 11 14 14 4
17 -251 73 -414 92 -654 138 -915 174 -355 50 -422 57 -582 63 l-161 6 -27
-29z m35 -3 c0 -6 20 -13 45 -17 65 -9 47 -18 -20 -9 -38 4 -55 11 -55 21 0 8
7 14 15 14 8 0 15 -4 15 -9z m680 -95 c109 -15 312 -57 307 -62 -2 -3 -93 11
-203 31 -109 19 -215 36 -234 38 l-35 4 35 1 c19 1 78 -4 130 -12z m456 -860
c92 -43 154 -112 154 -174 0 -39 -17 -52 -69 -52 -106 1 -231 106 -231 194 0
60 58 73 146 32z m1514 -662 c36 -8 92 -19 125 -26 l60 -11 -46 -15 c-40 -13
-54 -13 -110 0 l-64 15 35 10 c19 6 28 12 19 12 -9 1 -30 -4 -46 -10 -37 -12
-98 1 -98 22 0 8 -4 17 -10 21 -13 9 51 1 135 -18z m-2013 -40 c-3 -3 -12 -4
-19 -1 -8 3 -5 6 6 6 11 1 17 -2 13 -5z m1978 -15 c5 -6 3 -9 -5 -9 -8 0 -25
-3 -37 -6 -15 -4 -24 0 -33 16 -11 20 -10 21 27 14 21 -3 42 -10 48 -15z m307
-1 c32 -7 58 -15 58 -18 0 -14 -89 -29 -121 -21 -19 5 -47 12 -64 17 l-30 7
40 13 c51 16 49 16 117 2z m-2185 -14 c-3 -3 -12 -4 -19 -1 -8 3 -5 6 6 6 11
1 17 -2 13 -5z m1991 -6 l46 -11 -40 -14 c-32 -12 -51 -12 -104 -2 l-65 12 30
13 c38 17 74 17 133 2z m-1891 -24 c-3 -3 -12 -4 -19 -1 -8 3 -5 6 6 6 11 1
17 -2 13 -5z m2026 -5 c31 -7 57 -15 57 -19 0 -11 -78 -29 -103 -23 -12 3 -40
10 -62 15 l-40 11 35 13 c45 16 46 16 113 3z m-224 -11 c28 -6 51 -15 51 -19
0 -10 -85 -23 -103 -16 -19 7 -29 47 -12 47 7 0 36 -5 64 -12z m-1714 -8 c13
-5 14 -9 5 -9 -8 0 -24 4 -35 9 -13 5 -14 9 -5 9 8 0 24 -4 35 -9z m1924 -45
c1 -2 -16 -9 -38 -15 -31 -8 -57 -8 -101 1 -33 6 -60 15 -60 19 0 18 86 26
140 12 30 -8 57 -15 59 -17z m-1824 15 c13 -5 14 -9 5 -9 -8 0 -24 4 -35 9
-13 5 -14 9 -5 9 8 0 24 -4 35 -9z m100 -30 c13 -5 14 -9 5 -9 -8 0 -24 4 -35
9 -13 5 -14 9 -5 9 8 0 24 -4 35 -9z m1533 -1 c65 -16 70 -25 22 -37 -41 -10
-80 -6 -80 8 0 5 -3 15 -6 24 -7 19 2 20 64 5z m300 -6 l67 -17 -50 -13 c-38
-10 -62 -10 -100 -2 -92 20 -94 21 -45 35 60 16 52 16 128 -3z m-1733 -23 c13
-5 14 -9 5 -9 -8 0 -24 4 -35 9 -13 5 -14 9 -5 9 8 0 24 -4 35 -9z m1598 -11
c31 -7 57 -15 57 -19 0 -4 -18 -12 -40 -18 -31 -8 -55 -6 -107 7 l-67 17 35
11 c46 15 56 15 122 2z m-1513 -14 c19 -7 28 -13 20 -13 -8 0 -31 6 -50 13
-19 7 -28 13 -20 13 8 0 31 -6 50 -13z m1360 -15 c13 -8 13 -10 -2 -10 -9 0
-23 -3 -32 -6 -11 -4 -16 -1 -16 10 0 18 27 21 50 6z m-1260 -15 c19 -7 28
-13 20 -13 -8 0 -31 6 -50 13 -19 7 -28 13 -20 13 8 0 31 -6 50 -13z m1395
-16 l40 -12 -50 -13 c-43 -12 -58 -11 -110 3 l-59 17 29 13 c32 14 84 11 150
-8z m-1310 -9 c13 -5 14 -9 5 -9 -8 0 -24 4 -35 9 -13 5 -14 9 -5 9 8 0 24 -4
35 -9z m1259 -51 c-7 -12 -85 -22 -94 -13 -4 5 -11 18 -14 30 -6 21 -6 21 53
5 33 -8 58 -18 55 -22z m-1159 21 c13 -5 14 -9 5 -9 -8 0 -24 4 -35 9 -13 5
-14 9 -5 9 8 0 24 -4 35 -9z m100 -30 c13 -5 14 -9 5 -9 -8 0 -24 4 -35 9 -13
5 -14 9 -5 9 8 0 24 -4 35 -9z m100 -30 c13 -5 14 -9 5 -9 -8 0 -24 4 -35 9
-13 5 -14 9 -5 9 8 0 24 -4 35 -9z m85 -25 c19 -7 28 -13 20 -13 -8 0 -31 6
-50 13 -19 7 -28 13 -20 13 8 0 31 -6 50 -13z m97 -31 c-3 -3 -12 -4 -19 -1
-8 3 -5 6 6 6 11 1 17 -2 13 -5z m88 -24 c13 -5 14 -9 5 -9 -8 0 -24 4 -35 9
-13 5 -14 9 -5 9 8 0 24 -4 35 -9z m100 -30 c13 -5 14 -9 5 -9 -8 0 -24 4 -35
9 -13 5 -14 9 -5 9 8 0 24 -4 35 -9z m100 -30 c13 -5 14 -9 5 -9 -8 0 -24 4
-35 9 -13 5 -14 9 -5 9 8 0 24 -4 35 -9z m100 -30 c13 -5 14 -9 5 -9 -8 0 -24
4 -35 9 -13 5 -14 9 -5 9 8 0 24 -4 35 -9z m82 -26 c-3 -3 -12 -4 -19 -1 -8 3
-5 6 6 6 11 1 17 -2 13 -5z m100 -30 c-3 -3 -12 -4 -19 -1 -8 3 -5 6 6 6 11 1
17 -2 13 -5z"/>
<path d="M4256 7025 c-3 -8 -1 -15 4 -15 6 0 10 -6 10 -12 0 -7 7 -26 16 -43
8 -16 17 -50 20 -75 9 -80 26 -132 40 -126 10 4 14 -3 14 -20 0 -14 4 -23 9
-20 10 7 31 -69 31 -116 0 -25 3 -29 10 -18 9 13 10 13 10 0 0 -30 21 -90 29
-85 10 6 21 -28 21 -66 0 -15 7 -40 15 -55 15 -28 16 -25 9 51 -3 44 -7 182
-8 306 -1 172 -4 225 -13 222 -7 -3 -34 7 -60 21 -26 14 -71 34 -100 45 -43
17 -52 18 -57 6z"/>
<path d="M4532 6958 c-24 -24 -12 -403 24 -763 17 -171 51 -415 59 -423 15
-16 15 22 -4 165 -39 303 -60 590 -62 861 -1 94 -2 172 -3 172 -1 0 -7 -5 -14
-12z"/>
<path d="M7929 6580 c-162 -26 -288 -120 -366 -274 -108 -215 -92 -442 42
-589 l35 -38 -50 -74 c-30 -46 -44 -75 -35 -75 21 0 76 75 64 87 -8 8 -6 13 7
17 42 12 249 36 315 36 67 0 71 -1 114 -41 24 -22 49 -56 55 -75 13 -38 33
-41 38 -5 2 13 16 43 32 67 l28 45 -18 49 c-17 46 -55 110 -66 110 -3 0 -13
-17 -22 -37 -10 -21 -25 -52 -34 -69 l-17 -31 -58 9 c-52 8 -144 2 -277 -19
l-39 -6 27 46 c18 31 23 47 16 52 -19 12 21 32 132 70 109 36 200 52 242 41
33 -8 81 -59 113 -120 l25 -50 29 35 c42 49 106 183 123 259 19 77 20 198 5
272 -29 134 -116 250 -215 288 -65 24 -167 32 -245 20z m-241 -255 c93 -30
177 -77 193 -107 l12 -22 -29 19 c-92 60 -214 108 -252 98 -18 -4 -22 -1 -22
16 0 27 4 26 98 -4z m228 -8 c4 -12 2 -23 -4 -25 -6 -2 -8 -10 -5 -18 8 -22
-17 -17 -54 12 -36 28 -36 44 3 44 13 0 24 4 24 10 0 17 29 -1 36 -23z m278
-79 c9 -12 16 -39 16 -60 l0 -38 -43 0 c-23 0 -73 -8 -110 -19 -37 -10 -67
-17 -67 -16 0 1 23 37 50 79 50 76 51 76 95 76 34 0 47 -5 59 -22z m7 -138
c21 -12 27 -45 7 -37 -7 2 -23 7 -35 11 -23 7 -23 7 -6 -22 15 -26 15 -36 4
-85 -14 -64 -22 -73 -50 -57 -26 13 -129 -2 -232 -35 -41 -13 -75 -22 -77 -20
-2 2 22 37 52 79 l56 75 -66 -25 c-36 -13 -64 -20 -62 -14 8 26 302 139 361
140 16 0 37 -5 48 -10z m105 -188 c-4 -3 -12 0 -19 7 -9 9 -9 14 3 21 11 7 16
5 18 -6 2 -9 1 -18 -2 -22z"/>
<path d="M6585 6280 c-6 -9 12 -507 19 -542 2 -9 -1 -19 -7 -21 -6 -2 -7 -9
-3 -16 5 -7 15 -10 23 -7 18 7 45 -12 37 -25 -3 -5 12 -9 34 -9 27 0 47 7 65
24 31 29 40 58 34 117 l-4 44 -1 -52 c-1 -33 -6 -53 -14 -53 -6 0 -19 -7 -28
-15 -16 -14 -21 5 -75 275 -32 159 -61 290 -66 290 -4 0 -11 -4 -14 -10z"/>
<path d="M4011 6056 c3 -3 30 -10 60 -16 30 -6 62 -13 72 -16 20 -6 23 11 3
19 -23 9 -142 20 -135 13z"/>
<path d="M4146 5889 c-14 -17 -26 -35 -26 -41 0 -17 59 36 59 55 1 24 -3 22
-33 -14z"/>
<path d="M4837 5785 c-36 -45 -71 -125 -54 -125 7 0 29 36 49 80 20 44 36 80
35 80 -1 0 -14 -16 -30 -35z"/>
<path d="M3988 5693 c7 -3 16 -2 19 1 4 3 -2 6 -13 5 -11 0 -14 -3 -6 -6z"/>
<path d="M4028 5683 c6 -2 18 -2 25 0 6 3 1 5 -13 5 -14 0 -19 -2 -12 -5z"/>
<path d="M4078 5673 c6 -2 18 -2 25 0 6 3 1 5 -13 5 -14 0 -19 -2 -12 -5z"/>
<path d="M4128 5663 c6 -2 18 -2 25 0 6 3 1 5 -13 5 -14 0 -19 -2 -12 -5z"/>
<path d="M4178 5653 c7 -3 16 -2 19 1 4 3 -2 6 -13 5 -11 0 -14 -3 -6 -6z"/>
<path d="M8009 5589 c-42 -64 -42 -64 12 -61 56 4 61 17 26 58 l-23 26 -15
-23z"/>
<path d="M7516 5501 c-5 -7 6 -11 34 -11 23 0 98 -9 167 -21 79 -14 128 -18
134 -12 6 6 -28 16 -93 26 -158 26 -234 31 -242 18z"/>
<path d="M7885 5451 c-3 -5 6 -21 19 -34 13 -14 30 -44 37 -68 15 -53 25 -67
40 -52 7 7 6 24 -2 57 -18 72 -74 129 -94 97z"/>
<path d="M7365 5370 c-3 -5 2 -13 12 -17 10 -3 58 -23 108 -44 49 -21 93 -35
98 -30 4 4 -32 26 -80 48 -108 50 -130 57 -138 43z"/>
<path d="M7200 5276 c0 -3 36 -60 81 -128 l81 -123 -5 -66 c-3 -37 -12 -83
-21 -103 -8 -20 -12 -36 -8 -36 12 0 247 132 276 155 l30 24 -90 -20 c-49 -10
-99 -21 -111 -24 -16 -4 -23 -13 -23 -30 0 -13 -11 -37 -25 -52 -25 -28 -25
-28 -16 -3 5 14 12 53 16 87 6 57 4 66 -24 120 -51 94 -125 198 -143 201 -10
2 -18 1 -18 -2z"/>
<path d="M7663 5229 c-9 -9 -8 -17 4 -35 12 -19 14 -39 8 -99 -5 -62 -4 -75 8
-75 15 0 27 64 27 141 0 44 -29 86 -47 68z"/>
<path d="M6973 5174 c3 -11 19 -57 35 -104 16 -47 35 -118 42 -158 l12 -74
-33 -64 c-41 -81 -51 -89 -28 -21 28 79 26 87 -20 87 l-39 0 -13 88 c-8 48
-14 123 -14 167 l0 81 -85 -18 c-133 -28 -135 -29 -122 -37 15 -9 39 -103 53
-208 11 -86 7 -133 -12 -133 -7 0 -9 10 -5 26 8 32 -13 212 -25 220 -5 3 -9
-26 -9 -63 0 -116 -38 -226 -116 -335 l-34 -48 24 0 c13 0 27 -6 29 -12 4 -9
6 -8 6 2 1 11 43 26 153 54 83 21 163 43 177 49 14 5 33 11 41 13 8 2 78 28
156 60 l142 57 12 64 c8 43 9 68 3 74 -7 7 -41 -2 -102 -27 -73 -30 -91 -41
-91 -58 0 -19 -34 -86 -44 -86 -2 0 3 18 11 40 15 36 14 45 -5 122 -32 126
-77 251 -92 256 -9 3 -11 -1 -7 -14z"/>
<path d="M3623 4948 c-48 -53 -55 -103 -23 -155 42 -69 123 -46 130 37 5 55
-1 80 -26 109 -31 37 -53 39 -81 9z"/>
<path d="M4750 4625 c-14 -8 -20 -14 -15 -14 6 0 21 6 35 14 14 8 21 14 15 14
-5 0 -21 -6 -35 -14z"/>
<path d="M5560 4524 c-56 -40 -172 -93 -251 -114 -65 -18 -68 -20 -24 -14 65
8 182 53 258 100 67 41 40 42 252 -5 112 -26 328 -41 505 -35 219 6 164 22
-77 22 -227 -1 -352 12 -520 52 -104 25 -100 25 -143 -6z"/>
<path d="M6621 4513 c2 -69 14 -122 26 -115 16 10 3 134 -14 140 -9 2 -13 -6
-12 -25z"/>
<path d="M7077 4469 c-59 -15 -167 -37 -240 -50 -72 -12 -133 -23 -135 -25 -2
-1 0 -13 4 -28 6 -26 7 -26 73 -20 l67 6 24 -61 c22 -54 26 -59 37 -45 7 10
16 15 19 11 16 -15 33 22 27 58 -10 64 14 32 37 -48 51 -173 48 -169 83 -161
43 9 127 52 127 64 0 6 -14 60 -31 121 -32 115 -34 157 -6 102 13 -23 22 -30
37 -26 11 3 20 10 20 15 0 5 5 6 11 2 9 -5 10 1 5 21 -12 46 -34 95 -43 94 -4
-1 -56 -14 -116 -30z m69 -212 c14 -43 22 -82 18 -86 -16 -14 -96 -42 -103
-36 -3 4 -16 43 -28 87 -21 79 -21 80 -2 85 10 3 19 10 19 15 0 5 4 7 9 3 5
-3 12 -1 16 4 3 5 14 9 25 8 15 -1 26 -19 46 -80z"/>
<path d="M5108 4393 c7 -3 16 -2 19 1 4 3 -2 6 -13 5 -11 0 -14 -3 -6 -6z"/>
<path d="M5173 4383 c9 -2 23 -2 30 0 6 3 -1 5 -18 5 -16 0 -22 -2 -12 -5z"/>
<path d="M6510 4373 c-68 -7 -78 -12 -73 -33 3 -11 12 -20 19 -20 8 0 14 -5
14 -11 0 -19 55 -5 60 16 3 11 16 21 28 23 13 2 21 9 19 15 -4 14 -17 16 -67
10z"/>
<path d="M6340 4353 c-31 -6 -47 -20 -23 -20 71 1 68 4 81 -92 7 -48 12 -105
12 -124 0 -42 -1 -43 -122 -51 l-76 -6 -6 28 c-3 15 -8 71 -12 124 -4 58 -10
95 -16 92 -9 -6 -2 -208 8 -246 6 -20 45 -23 179 -11 l78 6 -7 108 c-3 60 -9
129 -13 154 -6 48 -12 51 -83 38z"/>
<path d="M5298 4248 c-2 -13 1 -30 9 -36 8 -8 13 -9 13 -2 0 5 5 10 11 10 5 0
8 -4 4 -9 -3 -6 4 -9 16 -8 12 1 25 11 30 26 12 29 12 29 -38 37 -37 6 -41 4
-45 -18z"/>
<path d="M5389 4197 c-12 -32 -19 -60 -17 -63 7 -6 163 -44 182 -44 12 0 72
147 64 155 -2 2 -49 5 -105 7 l-102 3 -22 -58z m35 -32 c-6 -16 -24 -21 -24
-7 0 11 11 22 21 22 5 0 6 -7 3 -15z m26 -5 c-12 -8 -12 -10 -1 -10 8 0 12 -3
8 -6 -9 -9 -28 6 -22 17 4 5 12 9 18 9 7 0 6 -4 -3 -10z"/>
<path d="M5611 4172 c-37 -119 -29 -112 -113 -96 -87 17 -91 17 -83 4 4 -7 -2
-7 -19 -1 -19 8 -26 6 -30 -5 -4 -10 -11 -12 -21 -7 -8 5 -33 7 -55 5 -93 -9
-14 -60 164 -106 54 -15 106 -26 115 -26 12 0 29 37 65 143 27 78 51 148 53
155 4 8 -5 12 -23 12 -27 0 -30 -5 -53 -78z"/>
<path d="M6960 4058 c0 -3 5 -20 11 -38 12 -32 13 -32 59 -26 52 7 154 35 148
41 -7 8 -218 29 -218 23z"/>
<path d="M6510 3985 c-149 -35 -249 -55 -285 -59 -22 -2 -75 -10 -117 -17 -75
-13 -78 -14 -78 -41 l0 -28 158 0 c167 0 379 30 388 55 3 6 1 32 -3 57 l-8 45
-55 -12z"/>
</g>
</svg>
